<?xml version="1.0" encoding="UTF-8" standalone="no"?>
<!-- Created with Inkscape (http://www.inkscape.org/) -->

<svg
   width="100"
   height="100"
   viewBox="0 0 26.458333 26.458333"
   version="1.1"
   id="svg1"
   xml:space="preserve"
   sodipodi:docname="sof.svg"
   inkscape:version="1.3.2 (091e20ef0f, 2023-11-25, custom)"
   xmlns:inkscape="http://www.inkscape.org/namespaces/inkscape"
   xmlns:sodipodi="http://sodipodi.sourceforge.net/DTD/sodipodi-0.dtd"
   xmlns="http://www.w3.org/2000/svg"
   xmlns:svg="http://www.w3.org/2000/svg"><sodipodi:namedview
     id="namedview1"
     pagecolor="#505050"
     bordercolor="#ffffff"
     borderopacity="1"
     inkscape:showpageshadow="0"
     inkscape:pageopacity="0"
     inkscape:pagecheckerboard="1"
     inkscape:deskcolor="#d1d1d1"
     showgrid="false"
     inkscape:zoom="8.52"
     inkscape:cx="49.941315"
     inkscape:cy="50"
     inkscape:window-width="1916"
     inkscape:window-height="1055"
     inkscape:window-x="0"
     inkscape:window-y="21"
     inkscape:window-maximized="1"
     inkscape:current-layer="layer6" /><defs
     id="defs1"><rect
       x="1064.804"
       y="1122.5197"
       width="432.32919"
       height="346.76495"
       id="rect33" /><clipPath
       clipPathUnits="userSpaceOnUse"
       id="clipPath81"><ellipse
         style="display:inline;fill:#ea8685;fill-opacity:1;stroke:#f9f9f9;stroke-width:0"
         id="ellipse81"
         cx="105"
         cy="148.5"
         rx="171.87881"
         ry="171.97917" /></clipPath></defs><g
     id="layer6"
     transform="matrix(0.07696799,0,0,0.07692307,5.1475279,1.80609)"
     style="display:inline"><g
       id="layer3"
       style="display:inline"><ellipse
         style="display:inline;fill:#ea8685;fill-opacity:1;stroke:#f9f9f9;stroke-width:0"
         id="path17"
         cx="105"
         cy="148.5"
         rx="171.87881"
         ry="171.97917" /></g><g
       id="layer1"
       style="display:inline"><rect
         style="display:inline;fill:#f0f8ff;fill-opacity:1;stroke:#666666;stroke-width:10.5042;stroke-dasharray:none;stroke-opacity:1"
         id="rect28"
         width="158.07837"
         height="187.60164"
         x="11.636669"
         y="41.535946" /><rect
         style="display:inline;fill:#666666;fill-opacity:1;stroke:none;stroke-width:26.7811;stroke-dasharray:none;stroke-opacity:1"
         id="rect29"
         width="168.58257"
         height="10.22"
         x="6.3845692"
         y="64.147903" /><g
         id="g28"><g
           id="g27"><rect
             style="fill:#c6c6c6;fill-opacity:1;stroke:#f9f9f9;stroke-width:0"
             id="rect27"
             width="26.097443"
             height="10.22"
             x="58.748425"
             y="120.16552" /><rect
             style="display:inline;fill:#c6c6c6;fill-opacity:1;stroke:#f9f9f9;stroke-width:0"
             id="rect26"
             width="25.627476"
             height="10.22"
             x="97.771568"
             y="104.34715" /></g><g
           id="g26"
           style="display:inline"><rect
             style="display:inline;fill:#666666;fill-opacity:1;stroke:#f9f9f9;stroke-width:0"
             id="rect25"
             width="26.285934"
             height="10.219738"
             x="32.46249"
             y="184.39294" /><rect
             style="display:inline;fill:#666666;fill-opacity:1;stroke:#f9f9f9;stroke-width:0"
             id="rect24"
             width="52.137585"
             height="10.22"
             x="32.46249"
             y="168.73933" /><rect
             style="display:inline;fill:#666666;fill-opacity:1;stroke:#f9f9f9;stroke-width:0"
             id="rect23"
             width="90.278084"
             height="10.22"
             x="58.748425"
             y="136.36447" /><rect
             style="display:inline;fill:#666666;fill-opacity:1;stroke:#f9f9f9;stroke-width:0"
             id="rect22"
             width="52.085255"
             height="10.22"
             x="32.46249"
             y="104.43045" /></g><g
           id="g25"
           style="display:inline"><rect
             style="fill:#e237a7;fill-opacity:1;stroke:#f9f9f9;stroke-width:0"
             id="rect21"
             width="25.816521"
             height="10.22"
             x="58.748425"
             y="201.1931" /><rect
             style="display:inline;fill:#e237a7;fill-opacity:1;stroke:#f9f9f9;stroke-width:0"
             id="rect18"
             width="52.137585"
             height="10.22"
             x="32.46249"
             y="152.69299" /><rect
             style="display:inline;fill:#e237a7;fill-opacity:1;stroke:#f9f9f9;stroke-width:0"
             id="rect20"
             width="51.254936"
             height="10.22"
             x="97.771568"
             y="120.16552" /><rect
             style="display:inline;fill:#e237a7;fill-opacity:1;stroke:#f9f9f9;stroke-width:0"
             id="rect19"
             width="26.010603"
             height="10.22"
             x="32.46249"
             y="88.139725" /></g></g><rect
         style="fill:#c6c6c6;fill-opacity:1;stroke:none;stroke-width:10.5042;stroke-dasharray:none;stroke-opacity:1"
         id="rect30"
         width="9.034791"
         height="9.034791"
         x="125.77265"
         y="50.449047" /><rect
         style="fill:#c6c6c6;fill-opacity:1;stroke:none;stroke-width:10.5042;stroke-dasharray:none;stroke-opacity:1"
         id="rect31"
         width="9.0096493"
         height="9.03479"
         x="139.15193"
         y="50.449047" /><rect
         style="fill:#c6c6c6;fill-opacity:1;stroke:none;stroke-width:10.5042;stroke-dasharray:none;stroke-opacity:1"
         id="rect32"
         width="9.1616249"
         height="9.03479"
         x="152.50607"
         y="50.449047" /></g><g
       id="layer5"
       style="display:inline;fill:#404040;fill-opacity:0.160914;stroke:none;stroke-width:0;stroke-dasharray:none"><rect
         style="display:inline;fill:#000000;fill-opacity:0.0627451;stroke:none;stroke-width:0;stroke-dasharray:none;stroke-opacity:1"
         id="rect34"
         width="171.87825"
         height="343.95834"
         x="105"
         y="-23.479172"
         clip-path="url(#clipPath81)" /></g><g
       id="layer4"
       style="display:inline"><circle
         style="display:inline;fill:#ff9966;fill-opacity:1;stroke:#f9f9f9;stroke-width:0"
         id="path18"
         cx="152.2224"
         cy="209.64127"
         r="53.01202" /><path
         d="m 1141.1899,1254.3067 v 10.8691 h -4.8307 q -18.7943,0 -25.2101,-5.5855 -6.3403,-5.5855 -6.3403,-22.2665 v -18.0396 q 0,-11.3974 -4.0759,-15.7752 -4.0004,-4.3778 -14.5675,-4.3778 h -4.6797 v -10.7936 h 4.6797 q 10.6426,0 14.643,-4.3023 4.0004,-4.3023 4.0004,-15.6242 v -18.1151 q 0,-16.681 6.3403,-22.191 6.4158,-5.5855 25.2101,-5.5855 h 4.8307 v 10.7936 h -5.2835 q -10.5672,0 -13.8128,3.3211 -3.1701,3.2456 -3.1701,13.9637 v 18.7189 q 0,11.8503 -3.4721,17.2093 -3.3966,5.3591 -11.6993,7.2461 8.3782,2.0379 11.7748,7.397 3.3966,5.359 3.3966,17.1338 v 18.7189 q 0,10.7936 3.1701,14.0392 3.2456,3.2456 13.8128,3.2456 z m 33.362,0 h 5.1326 q 10.6426,0 13.8882,-3.3211 3.2456,-3.3211 3.2456,-13.9637 v -18.7189 q 0,-11.7748 3.3966,-17.1338 3.3966,-5.3591 11.7748,-7.397 -8.3027,-1.887 -11.7748,-7.2461 -3.3966,-5.359 -3.3966,-17.2093 v -18.7189 q 0,-10.6426 -3.2456,-13.9637 -3.2456,-3.3211 -13.8882,-3.3211 h -5.1326 v -10.7936 h 4.6797 q 18.7944,0 25.1347,5.5855 6.3402,5.51 6.3402,22.191 v 18.1151 q 0,11.3219 4.0005,15.6242 4.0759,4.3023 14.7185,4.3023 h 4.8306 v 10.7936 h -4.8306 q -10.6426,0 -14.7185,4.3778 -4.0005,4.3778 -4.0005,15.7752 v 18.0396 q 0,16.681 -6.3402,22.2665 -6.3403,5.5855 -25.1347,5.5855 h -4.6797 z"
         id="text32"
         style="font-size:154.582px;line-height:1;font-family:'BitstreamVeraSansMono Nerd Font';-inkscape-font-specification:'BitstreamVeraSansMono Nerd Font, Normal';white-space:pre;fill:#f0f8ff;stroke-width:39.7009"
         transform="matrix(0.43149853,0,0,0.43149853,-347.39719,-305.50224)"
         aria-label="{}" /></g></g></svg>
